# xmcd CD database file
# Generated: Sat Mar 10 14:27:38 2001 by KSCD
# 
# Track frame offsets:
#       150
#       16082
#       36017
#       54032
#       72107
#       95207
#       110237
#       139682
#       154197
#       173702
#       195707
#       218095
#
# Disc length: 3286 seconds
#
# Revision: 2
# Processed by: cddbd v1.4b41PL1 Copyright (c) Steve Scherf et al.
# Submitted via: Kscd 1.2.7
#
DISCID=a00cd40c
DTITLE=Engerling - Egoland
DYEAR=1900
DGENRE=
TTITLE0=Es kommen andere Zeiten
TTITLE1=Narzisse
TTITLE2=Schwarze Polster
TTITLE3=Häng dich in den Wind
TTITLE4=Legoland
TTITLE5=Herbstlied
TTITLE6=Grüne Insel
TTITLE7=3 x darfst du raten
TTITLE8=Fahrradlied
TTITLE9=Spiel der Fliegen
TTITLE10=Mitschnitte von Telefonaten der Staatssicherheit ...
TTITLE11=Es kommen andere Zeiten (Extended Version)
EXTD=
EXTT0=
EXTT1=
EXTT2=
EXTT3=
EXTT4=
EXTT5=
EXTT6=
EXTT7=
EXTT8=
EXTT9=
EXTT10=Mitschnitte von Telefonaten der Staatssicherheit anläßlich\neines Enge
EXTT10=rling Konzertes Ende der 70er Jahre.
EXTT11=
PLAYORDER=
